<?xml version="1.0" encoding="UTF-8"?> <svg xmlns="http://www.w3.org/2000/svg" id="Livello_1" data-name="Livello 1" viewBox="0 0 500 311.57"><defs><style>.cls-1{fill:#000;}</style></defs><path class="cls-1" d="M274.05,104.81a7.84,7.84,0,0,0,2.22-14.4,7.86,7.86,0,0,0-10.75,2.79,7.75,7.75,0,0,0-.84,6,7.85,7.85,0,0,0,3.62,4.79,7.72,7.72,0,0,0,2.22.87v16.28L256.83,129V63.32L287.1,80.8v24.5a8.25,8.25,0,1,0,3.54,0V78.76L256.83,59.23V12.09a25.61,25.61,0,0,1,4.57,1.16l35.78,13.47-16.6,9.57a7.41,7.41,0,1,0-5.08,12.79,7.26,7.26,0,0,0,3.75-1,7.42,7.42,0,0,0,3.26-8.79l18.94-10.93C307.25,30.58,312,37.11,312,42.9v9l-15.67,9a7.41,7.41,0,0,0-11.48,9.14,7.41,7.41,0,0,0,13.57-1.9,7.4,7.4,0,0,0-.16-4.27l15.62-9,16.53,6.56a16.8,16.8,0,0,1,6.26,4.59L318.46,76.53a7.51,7.51,0,0,0-5.1-2,7.42,7.42,0,1,0,7,5l18.34-10.58a14.81,14.81,0,0,1,2.19,7.33v50.37A15.28,15.28,0,0,1,338.1,135l-13.34-7.69a7.43,7.43,0,0,0-7-9.82,7.42,7.42,0,1,0,5.08,12.79l13,7.5a16.32,16.32,0,0,1-5.44,3.71l-17,6.76-15.12-8.71a7.41,7.41,0,0,0-7-9.83,7.42,7.42,0,1,0,5.07,12.8l15.67,9v7.19c0,5.84-4.77,12.42-10.62,14.61l-1.3.5-15.67-9a7.42,7.42,0,0,0-3.24-8.8A7.44,7.44,0,0,0,271,158.59a7.43,7.43,0,0,0,6.38,11.19,7.44,7.44,0,0,0,5.1-2.05l13.31,7.67L261.4,188.34a23.12,23.12,0,0,1-4.57,1.15V133.08l17.22-9.94Z"></path><path class="cls-1" d="M293.18,69.64a4,4,0,0,1-5.3-1.37,3.88,3.88,0,1,1,5.3,1.37M277.46,45a4,4,0,0,1-5.31-1.37,3.88,3.88,0,1,1,7.1-1A3.83,3.83,0,0,1,277.46,45m-8.89,50A4.31,4.31,0,1,1,276,99.37a4.44,4.44,0,0,1-5.9,1.53A4.34,4.34,0,0,1,268.57,95m42.84-16.42a3.87,3.87,0,0,1,5.72,4.31,3.83,3.83,0,0,1-1.79,2.37A4,4,0,0,1,310,83.88a3.87,3.87,0,0,1,1.39-5.31m6.34,42.4a3.89,3.89,0,0,1,3.34,5.85,4,4,0,0,1-5.32,1.38,3.89,3.89,0,0,1,2-7.23M291.22,133.2a3.88,3.88,0,0,1,3.34,5.84,4,4,0,0,1-5.31,1.38,3.88,3.88,0,0,1,2-7.22m-2.34-24.58a4.63,4.63,0,0,1,4,7,4.76,4.76,0,0,1-6.34,1.64,4.64,4.64,0,0,1,2.36-8.63m-11.51,49.86a3.88,3.88,0,0,1,3.34,5.84,4,4,0,0,1-5.32,1.37,3.85,3.85,0,0,1-1.77-2.36,3.79,3.79,0,0,1,.4-2.94,3.91,3.91,0,0,1,3.35-1.91"></path><path class="cls-1" d="M165.56,137.55l12.7-7.32a7.41,7.41,0,0,0,12.27-3.52,7.37,7.37,0,0,0-.79-5.62,7.44,7.44,0,0,0-10.16-2.63,7.43,7.43,0,0,0-3.25,8.8l-13,7.49a15.21,15.21,0,0,1-2.7-8.11V76.26a14.13,14.13,0,0,1,1.48-6l16,9.21a7.44,7.44,0,0,0-.16,4.26,7.35,7.35,0,0,0,3.41,4.54,7.42,7.42,0,0,0,7.53-12.79,7.64,7.64,0,0,0-3.76-1,7.41,7.41,0,0,0-5.09,2l-16.09-9.27a17.06,17.06,0,0,1,7.23-5.79L187.42,55l15.44,8.89a7.41,7.41,0,0,0,7,9.83,7.42,7.42,0,1,0-5.08-12.8l-15.19-8.75V42.9c0-5.71,4.57-12.11,10.23-14.45l18.75,10.81a7.44,7.44,0,0,0,7,9.83,7.42,7.42,0,1,0-5.08-12.81l-16.42-9.45,36.08-13.57a24.57,24.57,0,0,1,4.57-1.17V59.17L210.81,78.76V105.3a8.15,8.15,0,0,0-2.37,15,8.06,8.06,0,0,0,4.13,1.13,8.17,8.17,0,0,0,4.15-15.22,8.11,8.11,0,0,0-2.38-.92V80.8l30.39-17.55v65.81l-13.8-8V104.81a7.83,7.83,0,1,0-5.75-.87,8.08,8.08,0,0,0,2.21.87v18.33l17.34,10v56.35a23.82,23.82,0,0,1-4.57-1.16l-34.65-13,13.12-7.56A7.42,7.42,0,1,0,220,156a7.39,7.39,0,0,0-3.25,8.79l-15.48,8.92-1-.38c-5.84-2.2-10.62-8.77-10.62-14.6v-7.47l15.2-8.76a7.41,7.41,0,0,0,11.48-9.15,7.42,7.42,0,0,0-13.41,6.18l-14.92,8.6-16.77-6.66a16.24,16.24,0,0,1-5.61-3.88"></path><path class="cls-1" d="M183.15,85.26a3.89,3.89,0,0,1-1.38-5.32A3.92,3.92,0,0,1,185.12,78a3.87,3.87,0,0,1,3.33,5.84,4,4,0,0,1-5.3,1.39M223.63,45a3.89,3.89,0,0,1-1.38-5.31c2.62-4.45,9.31-.51,6.69,3.94A4,4,0,0,1,223.63,45M225,98.26a4.31,4.31,0,1,1,7.89,1.11,4.44,4.44,0,0,1-5.9,1.53,4.28,4.28,0,0,1-2-2.64m-14.77,19a4.66,4.66,0,0,1-1.63-6.35c3.18-5.11,10.9-.56,8,4.7a4.76,4.76,0,0,1-6.35,1.65m-2.31,16.49a3.82,3.82,0,0,1,2-.54,3.88,3.88,0,0,1,2,7.22,4,4,0,0,1-5.32-1.38,3.89,3.89,0,0,1,1.39-5.3M221.75,159a3.87,3.87,0,0,1,5.31,1.38,3.86,3.86,0,0,1-1.38,5.3,4,4,0,0,1-5.3-1.37,3.86,3.86,0,0,1,1.37-5.31m-42.16-35.13a3.88,3.88,0,1,1,5.72,4.32,4,4,0,0,1-5.31-1.37,3.9,3.9,0,0,1-.41-3m28.32-54.24a3.87,3.87,0,1,1,5.3-1.37,4,4,0,0,1-5.3,1.37"></path><path class="cls-1" d="M18.14,193.57H76.25v10.68H18.14ZM68,241H18.14V230.11H68ZM18.14,270.26H76.25v10.68H18.14Z"></path><polygon class="cls-1" points="138.27 270.26 138.27 280.94 81.25 280.94 81.25 193.57 94.23 193.57 94.23 270.26 138.27 270.26"></polygon><path class="cls-1" d="M143.26,193.57h58.11v10.68H143.26ZM193.09,241H143.26V230.11h49.83Zm-49.83,29.26h58.11v10.68H143.26Z"></path><path class="cls-1" d="M281.06,193.57h17.18v87.37h-13v-65.6L256,280.94h-7.39l-42.24-87.37H222l30.25,66.1Zm-74.69,48h13.08v39.34H206.37Z"></path><path class="cls-1" d="M303.23,193.57h58.12v10.68H303.23ZM353.06,241H303.22V230.11h49.84Zm-49.83,29.26h58.12v10.68H303.23Z"></path><path class="cls-1" d="M428.85,193.57h13v87.37H426.25l-59.91-87.37h15.57l46.94,69.5ZM366.34,242.2h13.08v38.74H366.34Z"></path><polygon class="cls-1" points="486.77 204.25 459.8 204.25 459.8 280.94 446.82 280.94 446.82 193.57 486.77 193.57 486.77 204.25"></polygon><path class="cls-1" d="M341.07,300.89c-.72-.23.06-2.77.75-2.56,3.64,1.08,5.46,1,6.91.51a2.48,2.48,0,0,0,1.87-2.68c0-1.12-.69-2.18-2.63-2.34-.47,0-1.8-.15-2.29-.15a5.61,5.61,0,0,1-2.48-.57,4.15,4.15,0,0,1-2.17-3.83,4.52,4.52,0,0,1,2.33-4.08,7.84,7.84,0,0,1,4-1,13,13,0,0,1,5.15.95c.67.28-.4,2.72-1.07,2.43a10.83,10.83,0,0,0-4.08-.73,5.67,5.67,0,0,0-2.6.59,1.9,1.9,0,0,0-1,1.81,1.53,1.53,0,0,0,.7,1.47,3.21,3.21,0,0,0,1.29.27c.61,0,2,.1,2.5.14,3.36.31,5.09,2.59,5.06,5a5.07,5.07,0,0,1-3.73,5.22c-2.25.7-4.72.62-8.46-.49"></path><path class="cls-1" d="M354.91,291.89a7.67,7.67,0,0,1,7.66-7.67h.51a7.68,7.68,0,0,1,7.69,7.67v2.26a7.69,7.69,0,0,1-7.69,7.69h-.51a7.69,7.69,0,0,1-7.66-7.69Zm13.18,0a5,5,0,0,0-5-5h-.51a5,5,0,0,0-5,5v2.26a5,5,0,0,0,5,5h.51a5,5,0,0,0,5-5Z"></path><path class="cls-1" d="M372.81,284.45c0-.15.59-.21,1.21-.23h9.53c.73,0,.73,2.42,0,2.42h-8.08v5.15h7.14c.73,0,.73,2.42,0,2.42h-7.14v7.4c0,.31-2.66.31-2.66,0Z"></path><path class="cls-1" d="M391.13,286.89h-5.35c-.31,0-.31-2.67,0-2.67h13.36c.31,0,.31,2.67,0,2.67h-5.35v14.72c0,.31-2.66.31-2.66,0Z"></path><path class="cls-1" d="M400.83,284.51c0-.41,2.54-.39,2.66,0l3.34,12.71,1.93-7.28v0l.37-1.43c.14-.43,3.06-.43,3.16,0l.36,1.43v0l1.93,7.28,3.34-12.71c.13-.39,2.67-.41,2.67,0l-4.49,17c-.05.19-.53.29-1.41.29s-1.58-.08-1.64-.29l-2.35-8.87-2.33,8.87c-.06.21-.67.29-1.64.29s-1.37-.1-1.41-.29Z"></path><path class="cls-1" d="M425.38,284.53c.1-.22.76-.31,1.62-.31s1.48.09,1.6.31l6,17c0,.41-2.63.39-2.83,0L430,296.34H424l-1.85,5.19c-.21.39-2.83.41-2.83,0ZM427,288l-2.11,5.92h4.22Z"></path><path class="cls-1" d="M442.34,295.83a.86.86,0,0,0-.78-.56h-2.82v6.32c0,.3-2.69.3-2.69,0V284.45c0-.12.55-.23,1.29-.25h6a5.79,5.79,0,0,1,5.51,5.62,5.52,5.52,0,0,1-3.75,5.25l3.75,6.48c0,.39-3,.36-3.2,0Zm-3.6-9v6h4.63a3.16,3.16,0,0,0,2.85-3,3.1,3.1,0,0,0-2.85-2.95Z"></path><path class="cls-1" d="M450.92,284.45c0-.15.59-.21,1.23-.23h9.53c.74,0,.74,2.42,0,2.42h-8.07v5.15h7.13c.74,0,.74,2.42,0,2.42h-7.13v5.2h8.07c.74,0,.74,2.42,0,2.42h-9.53c-.64,0-1.23-.08-1.23-.22Z"></path></svg> 