<svg xmlns="http://www.w3.org/2000/svg" width="1920" height="710.003" viewBox="0 0 1920 710.003">
<path fill="#00ffff" d="M122.45,619A45.5,45.5,0,1,0,168,664.523,45.5,45.5,0,0,0,122.45,619m136,0a45.955,45.955,0,1,1-.02,0m136,0a45.371,45.371,0,1,0,.03,0"></path>
<path class="uk-fill-white" d="M1914.8,671h-28.36v23.73H1920v15h-51.76v-89.5h51.63V635.3h-33.43v21.15h28.36Zm-58.44,27.59a33.4,33.4,0,0,1-12.91,8.52A47.65,47.65,0,0,1,1826.7,710q-15.53,0-24.15-9.57t-8.85-27.81V656.5q0-18.51,8.14-28.5t23.75-10q14.67,0,22.13,7.2t8.64,22.56h-17.71c-.49-5.69-1.69-9.58-3.59-11.64s-4.87-3.11-8.92-3.11c-4.91,0-8.48,1.79-10.71,5.34s-3.38,9.25-3.47,17V671.6c0,8.16,1.23,14.08,3.68,17.8s6.5,5.56,12.11,5.56a15.859,15.859,0,0,0,8.73-2.15l1.6-1.1V675.32h-12.74V661.67h31Zm-75.91,11.14h-18.2L1735.63,651v58.72h-18.22V620.23h18.22L1762.31,679V620.23h18.14Zm-95.73-18.32h-24.83l-4.83,18.32H1635.8l28.2-89.5h16.67L1709,709.76h-19.44Zm-20.86-15.07h16.84l-8.42-31.91ZM1626,709.76h-18.15V671.45H1581v38.31h-18.2V620.23H1581v36.22h26.86V620.23H1626Zm-74.42-30.82q-.69,15.31-8.67,23.19T1520.34,710q-15.28,0-23.44-10t-8.14-28.52v-15q0-18.47,8.42-28.44t23.4-10q14.75,0,22.38,8.17t8.7,23.49H1533.4q-.26-9.46-3-13.06c-1.78-2.4-5.09-3.6-9.87-3.6s-8.31,1.68-10.33,5.06-3.1,9-3.22,16.7v16.91q0,13.35,3,18.32,3,5,10.31,5c4.87,0,8.08-1.14,9.91-3.47s2.85-6.5,3.08-12.57Zm-132.82,15.82h31.94v15h-50.15V620.24h18.21Zm-63.34-50.3L1347,676.37h16.84Zm-33.62-24.23V635.3h-22.3v74.46h-18.26V635.3H1259.3V620.23Zm42,0,28.36,89.53h-19.44l-4.83-18.32H1343l-4.83,18.32H1318.9l28.17-89.53Zm-132.07,89.53h18.2V620.23h-18.2ZM1218,698.62a33.289,33.289,0,0,1-12.9,8.52,47.71,47.71,0,0,1-16.76,2.86q-15.54,0-24.15-9.57t-8.84-27.81V656.5q0-18.51,8.14-28.5t23.74-10q14.67,0,22.13,7.2t8.64,22.56h-17.7c-.5-5.69-1.7-9.58-3.6-11.64s-4.86-3.11-8.91-3.11c-4.91,0-8.48,1.79-10.72,5.34s-3.37,9.25-3.46,17V671.6c0,8.16,1.23,14.08,3.68,17.8s6.49,5.56,12.11,5.56a15.8,15.8,0,0,0,8.72-2.15l1.61-1.1V675.32H1187V661.67h31Zm-94.78,11.14h18.2V620.23h-18.2Zm-72.45,0V620.23h23.83q15.78,0,25.17,10t9.58,27.3V672q0,17.64-9.39,27.7t-25.86,10ZM1069,635.3v59.46h5.45q9.1,0,12.81-4.77t3.9-16.44V658q0-12.54-3.52-17.49t-12-5.2Zm-80.13,56.14H964l-4.82,18.32H939.92l28.17-89.53h16.66l28.36,89.53H993.67ZM968,676.37h16.84l-8.42-31.91Zm-64.3,22.25a33.33,33.33,0,0,1-12.91,8.52A47.608,47.608,0,0,1,874,710q-15.52,0-24.15-9.57t-8.84-27.81V656.5q0-18.51,8.14-28.5t23.74-10q14.67,0,22.13,7.2t8.64,22.56H886c-.5-5.69-1.7-9.58-3.6-11.64s-4.87-3.11-8.92-3.11c-4.91,0-8.47,1.79-10.71,5.34s-3.38,9.25-3.46,17V671.6c0,8.16,1.22,14.08,3.68,17.8s6.49,5.56,12.1,5.56a15.809,15.809,0,0,0,8.73-2.15l1.62-1.1V675.32H872.68V661.67h31Zm-75.91,11.14h-18.2L783,651v58.72H764.8V620.23H783L809.65,679V620.23h18.14Zm-96.52,0h18.2V620.23h-18.2ZM686.5,685.17l15.17-64.94H722l-26,89.53H677l-25.81-89.53H671.4Zm-62.85,24.59h18.2V620.23h-18.2ZM580,677.06h-9.1v32.71H552.7V620.23h29q13.68,0,21.15,7t7.46,20q0,17.84-13.07,25l15.79,36.64v.88H593.5ZM570.9,662h10.33c3.64,0,6.36-1.21,8.18-3.6s2.73-5.61,2.73-9.63q0-13.46-10.58-13.46H570.9ZM481,709.76V620.23h23.84c10.51,0,18.92,3.32,25.16,10s9.44,15.74,9.56,27.3V672q0,17.64-9.37,27.7t-25.86,10Zm18.2-74.46v59.46h5.45q9.11,0,12.82-4.77t3.89-16.44V658q0-12.54-3.52-17.49t-12-5.2Z"/>
<path class="uk-fill-white" d="M1688,483.65c-90,0-153.85-7-193.2-12.28v63c42,7,100.55,13.1,195,13.1,167,0,228.2-49,228.2-157.45,0-107.58-56-151.36-198.5-151.36-131.11,0-162.59-13.09-162.59-85.7,0-67.36,32.36-87.47,149.51-87.47,88.29,0,139.88,5.25,179.22,9.61v-63c-35-4.38-96.17-9.65-181-9.65-157.36,0-221.22,49-221.22,151.35,0,107.62,58.59,150.46,189.75,150.46,145.11,0,170.47,14,170.47,87.48,0,71.71-36.71,91.86-155.64,91.86m-212.32-210C1475.71,91.74,1394.4,6,1236.17,6H1026.33V544h209c164.33,0,240.38-93.59,240.38-270.31ZM1099.77,480.13V69.85h125.89c125.93,0,174,50.77,174,210s-55.94,200.31-174,200.31ZM925.78,446c25.36-40.27,38.49-88.38,38.49-140.86v-84H898.66v78.72c0,34.12-6.11,67.36-19.22,95.37L721.19,223c-32.36-35-53.33-59.49-53.33-94.5,0-42,22.74-62.09,87.42-62.09,48.08,0,86.57,5.25,105.8,8.75V11.27c-19.23-3.51-57.72-8.78-113.67-8.78-97.92,0-153,45.52-153,125.09,0,34.14,10.49,66.52,40.23,105C579.55,257.07,521.86,299.94,521.86,390c0,108.49,76.92,161,198.44,161,66.46,0,119.8-19.22,160-52.47l42,45.47h94.41ZM722.05,494.12c-84.78,0-130.28-28-130.28-103.21,0-70.85,34.12-98.84,78.71-118.09,0,0,167.86,180.19,167.86,181.1-28.85,25.37-67.34,40.2-116.29,40.2ZM259.69,0C117.17,0,0,67.37,0,278.18,0,488.15,116.29,552,258.81,552S517.6,488.15,517.6,278.18C517.6,67.37,402.18,0,259.69,0m-1,488.88c-111.92,0-183.61-42-183.61-209.93,0-171.45,68.19-216.07,182.73-216.07S440.54,107.5,440.54,279c0,167.94-71.7,209.93-181.85,209.93"/>
</svg>